<svg xmlns="http://www.w3.org/2000/svg" xmlns:xlink="http://www.w3.org/1999/xlink" width="4000" zoomAndPan="magnify" viewBox="0 0 3000 1499.999933" height="2000" preserveAspectRatio="xMidYMid meet" version="1.0"><defs><g/><clipPath id="5c9557b98a"><path d="M 7 0.839844 L 2704.238281 0.839844 L 2704.238281 643 L 7 643 Z M 7 0.839844 " clip-rule="nonzero"/></clipPath><clipPath id="850f39c3d4"><rect x="0" width="2698" y="0" height="643"/></clipPath><clipPath id="1a6eced367"><rect x="0" width="1767" y="0" height="267"/></clipPath><clipPath id="1ab032f4fa"><path d="M 0.160156 501 L 2689 501 L 2689 510 L 0.160156 510 Z M 0.160156 501 " clip-rule="nonzero"/></clipPath><clipPath id="0eae92062c"><rect x="0" width="2705" y="0" height="840"/></clipPath></defs><g transform="matrix(1, 0, 0, 1, 146, 315)"><g clip-path="url(#0eae92062c)"><g clip-path="url(#5c9557b98a)"><g transform="matrix(1, 0, 0, 1, 7, 0.000000000000113687)"><g clip-path="url(#850f39c3d4)"><g fill="#000000" fill-opacity="1"><g transform="translate(0.990903, 463.397932)"><g><path d="M 297.421875 -248.5 C 326.390625 -223.195312 340.875 -188.101562 340.875 -143.21875 C 340.875 -98.34375 326.390625 -63.253906 297.421875 -37.953125 C 268.460938 -12.648438 228.363281 0 177.125 0 L 15.75 0 L 15.75 -4.78125 L 21.96875 -4.78125 C 29.28125 -4.78125 35.484375 -7.320312 40.578125 -12.40625 C 45.671875 -17.5 48.378906 -23.550781 48.703125 -30.5625 L 48.703125 -256.859375 C 48.054688 -263.859375 45.1875 -269.742188 40.09375 -274.515625 C 35.007812 -279.285156 28.804688 -281.671875 21.484375 -281.671875 L 15.75 -281.671875 L 15.75 -286.453125 L 177.125 -286.453125 C 228.363281 -286.453125 268.460938 -273.800781 297.421875 -248.5 Z M 171.390625 -19.09375 C 201.304688 -19.09375 224.9375 -30.070312 242.28125 -52.03125 C 259.632812 -74 268.3125 -104.394531 268.3125 -143.21875 C 268.3125 -182.050781 259.632812 -212.523438 242.28125 -234.640625 C 224.9375 -256.765625 201.304688 -267.828125 171.390625 -267.828125 L 117.453125 -267.828125 L 117.453125 -19.09375 Z M 171.390625 -19.09375 "/></g></g></g><g fill="#000000" fill-opacity="1"><g transform="translate(352.371713, 463.397932)"><g><path d="M 241.09375 0 L 16.234375 0 L 16.234375 -4.78125 L 21.96875 -4.78125 C 29.28125 -4.78125 35.398438 -7.164062 40.328125 -11.9375 C 45.265625 -16.707031 47.894531 -22.59375 48.21875 -29.59375 L 48.21875 -256.859375 C 47.894531 -263.859375 45.265625 -269.742188 40.328125 -274.515625 C 35.398438 -279.285156 29.28125 -281.671875 21.96875 -281.671875 L 16.234375 -281.671875 L 16.234375 -286.453125 L 184.28125 -286.453125 C 192.875 -286.453125 202.265625 -287.25 212.453125 -288.84375 C 222.640625 -290.4375 229.800781 -292.023438 233.9375 -293.609375 L 233.9375 -217.703125 L 229.15625 -217.703125 L 229.15625 -222 C 229.15625 -236 225.335938 -246.976562 217.703125 -254.9375 C 210.066406 -262.894531 199.40625 -267.035156 185.71875 -267.359375 L 116.96875 -267.359375 L 116.96875 -151.34375 L 171.390625 -151.34375 C 182.210938 -151.65625 190.960938 -155.3125 197.640625 -162.3125 C 204.328125 -169.320312 207.671875 -178.238281 207.671875 -189.0625 L 207.671875 -192.40625 L 212.453125 -192.40625 L 212.453125 -91.1875 L 207.671875 -91.1875 L 207.671875 -94.53125 C 207.671875 -109.488281 202.101562 -120.3125 190.96875 -127 C 185.238281 -130.5 178.875 -132.25 171.875 -132.25 L 116.96875 -132.25 L 116.96875 -19.09375 L 174.265625 -19.09375 C 193.992188 -19.414062 210.78125 -25.539062 224.625 -37.46875 C 238.46875 -49.40625 248.570312 -66.195312 254.9375 -87.84375 L 259.234375 -87.84375 Z M 241.09375 0 "/></g></g></g><g fill="#000000" fill-opacity="1"><g transform="translate(621.158897, 463.397932)"><g><path d="M 228.203125 -286.453125 L 362.359375 -286.453125 L 362.359375 -281.671875 L 354.25 -281.671875 C 346.925781 -281.671875 340.796875 -279.441406 335.859375 -274.984375 C 330.929688 -270.535156 328.304688 -264.8125 327.984375 -257.8125 L 327.984375 -49.171875 C 327.984375 -29.441406 329.257812 -13.210938 331.8125 -0.484375 L 332.765625 6.203125 L 328.46875 6.203125 L 109.328125 -187.15625 L 109.328125 -29.125 C 109.648438 -22.125 112.273438 -16.316406 117.203125 -11.703125 C 122.140625 -7.085938 128.269531 -4.78125 135.59375 -4.78125 L 143.703125 -4.78125 L 143.703125 0 L 10.03125 0 L 10.03125 -4.78125 L 17.671875 -4.78125 C 24.984375 -4.78125 31.1875 -7.085938 36.28125 -11.703125 C 41.375 -16.316406 43.921875 -22.125 43.921875 -29.125 L 43.921875 -239.1875 C 43.921875 -258.28125 42.648438 -274.035156 40.109375 -286.453125 L 39.15625 -293.140625 L 43.453125 -292.65625 L 262.109375 -100.265625 L 262.109375 -257.328125 C 262.109375 -264.328125 259.640625 -270.132812 254.703125 -274.75 C 249.765625 -279.363281 243.640625 -281.671875 236.328125 -281.671875 L 228.203125 -281.671875 Z M 228.203125 -286.453125 "/></g></g><g transform="translate(993.068787, 463.397932)"><g><path d="M 16.234375 -4.78125 L 21.96875 -4.78125 C 29.601562 -4.78125 36.125 -7.242188 41.53125 -12.171875 C 46.945312 -17.109375 49.65625 -23.078125 49.65625 -30.078125 L 49.65625 -256.375 C 49.65625 -263.375 46.945312 -269.335938 41.53125 -274.265625 C 36.125 -279.203125 29.601562 -281.671875 21.96875 -281.671875 L 16.234375 -281.671875 L 16.234375 -286.453125 L 151.8125 -286.453125 L 151.8125 -281.671875 L 146.09375 -281.671875 C 138.769531 -281.671875 132.398438 -279.285156 126.984375 -274.515625 C 121.578125 -269.742188 118.71875 -263.859375 118.40625 -256.859375 L 118.40625 -30.078125 C 118.71875 -22.753906 121.578125 -16.707031 126.984375 -11.9375 C 132.398438 -7.164062 138.769531 -4.78125 146.09375 -4.78125 L 151.8125 -4.78125 L 151.8125 0 L 16.234375 0 Z M 16.234375 -4.78125 "/></g></g><g transform="translate(1161.120496, 463.397932)"><g><path d="M 16.703125 0 L 16.703125 -3.8125 L 173.78125 -267.828125 L 71.609375 -267.828125 C 57.921875 -267.515625 47.257812 -263.378906 39.625 -255.421875 C 31.988281 -247.460938 28.171875 -236.484375 28.171875 -222.484375 L 28.171875 -218.65625 L 23.390625 -218.65625 L 23.390625 -294.09375 C 27.210938 -292.5 34.613281 -290.90625 45.59375 -289.3125 C 56.570312 -287.726562 66.519531 -286.9375 75.4375 -286.9375 L 215.796875 -286.9375 C 225.023438 -286.9375 234.8125 -287.570312 245.15625 -288.84375 C 255.5 -290.113281 262.101562 -291.382812 264.96875 -292.65625 L 264.96875 -288.84375 L 109.8125 -18.625 L 192.40625 -18.625 C 234.726562 -19.257812 263.210938 -42.332031 277.859375 -87.84375 L 283.109375 -87.84375 L 262.109375 0 Z M 16.703125 0 "/></g></g></g><g fill="#000000" fill-opacity="1"><g transform="translate(1455.688407, 463.397932)"><g><path d="M 257.328125 -158.03125 C 241.410156 -130.332031 216.425781 -116.484375 182.375 -116.484375 C 165.507812 -116.484375 148.800781 -122.054688 132.25 -133.203125 L 132.25 -137.015625 C 164.070312 -137.015625 184.441406 -153.25 193.359375 -185.71875 C 195.265625 -193.039062 196.21875 -198.925781 196.21875 -203.375 C 196.21875 -225.34375 190.960938 -241.578125 180.453125 -252.078125 C 169.953125 -262.578125 155.953125 -267.828125 138.453125 -267.828125 L 116.96875 -267.828125 L 116.96875 -30.078125 C 117.289062 -19.890625 121.585938 -12.566406 129.859375 -8.109375 C 133.679688 -5.890625 137.976562 -4.78125 142.75 -4.78125 L 148.484375 -4.78125 L 148.484375 0 L 16.703125 0 L 16.703125 -4.78125 L 22.4375 -4.78125 C 29.4375 -4.78125 35.398438 -7.164062 40.328125 -11.9375 C 45.265625 -16.707031 47.734375 -22.59375 47.734375 -29.59375 L 47.734375 -256.375 C 47.734375 -263.695312 45.265625 -269.742188 40.328125 -274.515625 C 35.398438 -279.285156 29.28125 -281.671875 21.96875 -281.671875 L 16.234375 -281.671875 L 16.234375 -286.453125 L 157.546875 -286.453125 C 194.148438 -286.453125 221.523438 -279.128906 239.671875 -264.484375 C 259.078125 -249.523438 268.78125 -229 268.78125 -202.90625 C 268.78125 -186.351562 264.960938 -171.394531 257.328125 -158.03125 Z M 257.328125 -158.03125 "/></g></g></g><g fill="#000000" fill-opacity="1"><g transform="translate(1741.662687, 463.397932)"><g><path d="M 16.703125 -143.21875 C 16.703125 -189.050781 32.0625 -225.414062 62.78125 -252.3125 C 93.5 -279.207031 134.398438 -292.65625 185.484375 -292.65625 C 236.566406 -292.65625 277.539062 -279.207031 308.40625 -252.3125 C 339.28125 -225.414062 354.71875 -189.050781 354.71875 -143.21875 C 354.71875 -97.394531 339.28125 -61.035156 308.40625 -34.140625 C 277.539062 -7.242188 236.644531 6.203125 185.71875 6.203125 C 134.789062 6.203125 93.890625 -7.242188 63.015625 -34.140625 C 32.140625 -61.035156 16.703125 -97.394531 16.703125 -143.21875 Z M 89.75 -143.21875 C 89.75 -103.125 98.421875 -71.378906 115.765625 -47.984375 C 133.117188 -24.585938 156.351562 -12.890625 185.46875 -12.890625 C 214.59375 -12.890625 237.828125 -24.585938 255.171875 -47.984375 C 272.523438 -71.378906 281.203125 -103.125 281.203125 -143.21875 C 281.203125 -183.320312 272.523438 -215.070312 255.171875 -238.46875 C 237.828125 -261.863281 214.59375 -273.5625 185.46875 -273.5625 C 156.351562 -273.5625 133.117188 -261.863281 115.765625 -238.46875 C 98.421875 -215.070312 89.75 -183.320312 89.75 -143.21875 Z M 89.75 -143.21875 "/></g></g></g><g fill="#000000" fill-opacity="1"><g transform="translate(2106.888681, 463.397932)"><g><path d="M 135.109375 -266.875 L 119.828125 -266.875 L 119.828125 -30.078125 C 119.828125 -22.441406 122.453125 -16.316406 127.703125 -11.703125 C 132.960938 -7.085938 138.929688 -4.78125 145.609375 -4.78125 L 150.859375 -4.78125 L 150.859375 0 L 19.578125 0 L 19.578125 -4.78125 L 25.296875 -4.78125 C 32.304688 -4.78125 38.273438 -7.164062 43.203125 -11.9375 C 48.140625 -16.707031 50.609375 -22.59375 50.609375 -29.59375 L 50.609375 -256.859375 C 50.609375 -263.859375 48.140625 -269.742188 43.203125 -274.515625 C 38.273438 -279.285156 32.46875 -281.671875 25.78125 -281.671875 L 19.578125 -281.671875 L 19.578125 -286.453125 L 166.140625 -286.453125 C 194.785156 -286.453125 218.816406 -280.882812 238.234375 -269.75 C 259.878906 -257.332031 270.703125 -236.800781 270.703125 -208.15625 C 270.703125 -189.695312 265.128906 -173.066406 253.984375 -158.265625 C 242.847656 -143.460938 226.300781 -134.472656 204.34375 -131.296875 C 212.9375 -128.429688 221.445312 -123.019531 229.875 -115.0625 C 238.3125 -107.101562 245.078125 -98.984375 250.171875 -90.703125 C 260.359375 -72.566406 271.019531 -55.9375 282.15625 -40.8125 C 293.289062 -25.695312 302.28125 -15.910156 309.125 -11.453125 C 315.96875 -7.003906 324.320312 -4.78125 334.1875 -4.78125 L 334.1875 0 L 294.09375 0 C 267.675781 0 247.382812 -3.179688 233.21875 -9.546875 C 219.050781 -15.910156 206.398438 -28.003906 195.265625 -45.828125 C 178.078125 -73.203125 167.414062 -94.847656 163.28125 -110.765625 C 159.457031 -120.304688 154.921875 -127.460938 149.671875 -132.234375 C 144.421875 -137.015625 139.410156 -139.722656 134.640625 -140.359375 L 134.640625 -144.1875 L 146.5625 -144.1875 C 173.625 -144.5 190.175781 -160.410156 196.21875 -191.921875 C 197.488281 -196.691406 198.125 -200.828125 198.125 -204.328125 C 198.125 -207.835938 197.960938 -212.691406 197.640625 -218.890625 C 197.328125 -225.097656 195.335938 -232.097656 191.671875 -239.890625 C 188.015625 -247.691406 183.320312 -253.347656 177.59375 -256.859375 C 167.726562 -262.898438 157.546875 -266.082031 147.046875 -266.40625 C 143.546875 -266.71875 139.566406 -266.875 135.109375 -266.875 Z M 135.109375 -266.875 "/></g></g></g><g fill="#000000" fill-opacity="1"><g transform="translate(2411.005089, 463.397932)"><g><path d="M 276.421875 -218.65625 L 276.421875 -222.953125 C 276.421875 -236.640625 272.601562 -247.460938 264.96875 -255.421875 C 257.332031 -263.378906 246.671875 -267.515625 232.984375 -267.828125 L 177.59375 -267.828125 L 177.59375 -29.59375 C 177.914062 -22.59375 180.625 -16.707031 185.71875 -11.9375 C 190.8125 -7.164062 196.859375 -4.78125 203.859375 -4.78125 L 209.109375 -4.78125 L 209.109375 0 L 77.34375 0 L 77.34375 -4.78125 L 82.109375 -4.78125 C 89.429688 -4.78125 95.640625 -7.164062 100.734375 -11.9375 C 105.828125 -16.707031 108.375 -22.753906 108.375 -30.078125 L 108.375 -267.828125 L 53.46875 -267.828125 C 39.46875 -267.515625 28.644531 -263.378906 21 -255.421875 C 13.363281 -247.460938 9.546875 -236.640625 9.546875 -222.953125 L 9.546875 -218.65625 L 4.78125 -218.65625 L 4.78125 -294.09375 C 9.226562 -292.5 16.625 -290.90625 26.96875 -289.3125 C 37.3125 -287.726562 46.625 -286.9375 54.90625 -286.9375 L 231.078125 -286.9375 C 245.078125 -286.9375 256.613281 -287.96875 265.6875 -290.03125 C 274.757812 -292.101562 279.929688 -293.457031 281.203125 -294.09375 L 281.203125 -218.65625 Z M 276.421875 -218.65625 "/></g></g></g></g></g></g><path stroke-linecap="butt" transform="matrix(0, 1.854882, -1.854882, 0, 792.540794, 548.05133)" fill="none" stroke-linejoin="miter" d="M -0.000295659 1.99946 L 154.246363 1.99946 " stroke="#000000" stroke-width="4" stroke-opacity="1" stroke-miterlimit="4"/><g transform="matrix(1, 0, 0, 1, 874, 558)"><g clip-path="url(#1a6eced367)"><g fill="#000000" fill-opacity="1"><g transform="translate(1.107831, 191.68101)"><g><path d="M 89.59375 -102.484375 C 91.570312 -98.648438 92.5625 -94.023438 92.5625 -88.609375 C 92.5625 -83.191406 90.378906 -78.203125 86.015625 -73.640625 C 81.660156 -69.078125 76.578125 -66.070312 70.765625 -64.625 C 80.410156 -63.5625 88.367188 -60.054688 94.640625 -54.109375 C 100.921875 -48.160156 104.0625 -41.648438 104.0625 -34.578125 C 104.0625 -27.515625 102.707031 -21.734375 100 -17.234375 C 97.289062 -12.742188 93.691406 -9.3125 89.203125 -6.9375 C 80.609375 -2.3125 70.894531 0 60.0625 0 L 10.90625 0 L 10.90625 -1.984375 L 13.28125 -1.984375 C 16.582031 -1.984375 19.351562 -3.003906 21.59375 -5.046875 C 23.84375 -7.097656 25.035156 -9.644531 25.171875 -12.6875 L 25.171875 -106.25 C 25.035156 -110.601562 23.054688 -113.707031 19.234375 -115.5625 C 17.515625 -116.488281 15.53125 -116.953125 13.28125 -116.953125 L 10.90625 -116.953125 L 10.90625 -118.9375 L 51.34375 -118.9375 C 71.03125 -118.9375 83.78125 -113.453125 89.59375 -102.484375 Z M 89.984375 -33.296875 C 89.984375 -52.984375 74.59375 -62.828125 43.8125 -62.828125 L 43.8125 -64.8125 C 67.0625 -64.8125 78.6875 -72.941406 78.6875 -89.203125 C 78.6875 -105.054688 69.503906 -112.984375 51.140625 -112.984375 L 37.65625 -112.984375 L 37.65625 -5.953125 L 59.859375 -5.953125 C 68.847656 -5.953125 76.113281 -8.226562 81.65625 -12.78125 C 87.207031 -17.34375 89.984375 -24.179688 89.984375 -33.296875 Z M 89.984375 -33.296875 "/></g></g></g><g fill="#000000" fill-opacity="1"><g transform="translate(115.072414, 191.68101)"><g><path d="M 43.203125 -113.875 C 53.378906 -119.09375 64.578125 -121.703125 76.796875 -121.703125 C 89.023438 -121.703125 100.226562 -119.09375 110.40625 -113.875 C 120.582031 -108.65625 128.675781 -101.285156 134.6875 -91.765625 C 140.695312 -82.253906 143.703125 -71.484375 143.703125 -59.453125 C 143.703125 -47.429688 140.695312 -36.664062 134.6875 -27.15625 C 128.675781 -17.644531 120.582031 -10.273438 110.40625 -5.046875 C 100.226562 0.171875 89.785156 2.78125 79.078125 2.78125 C 68.378906 2.78125 58.929688 1.257812 50.734375 -1.78125 C 42.546875 -4.820312 35.445312 -9.050781 29.4375 -14.46875 C 23.425781 -19.882812 18.664062 -26.488281 15.15625 -34.28125 C 11.65625 -42.082031 9.90625 -51.234375 9.90625 -61.734375 C 9.90625 -72.242188 12.910156 -82.253906 18.921875 -91.765625 C 24.941406 -101.285156 33.035156 -108.65625 43.203125 -113.875 Z M 39.546875 -18.921875 C 49.523438 -8.421875 61.910156 -3.171875 76.703125 -3.171875 C 91.503906 -3.171875 103.925781 -8.421875 113.96875 -18.921875 C 124.019531 -29.429688 129.046875 -42.945312 129.046875 -59.46875 C 129.046875 -75.988281 124.019531 -89.5 113.96875 -100 C 103.925781 -110.507812 91.503906 -115.765625 76.703125 -115.765625 C 61.910156 -115.765625 49.523438 -110.507812 39.546875 -100 C 29.566406 -89.5 24.578125 -75.988281 24.578125 -59.46875 C 24.578125 -42.945312 29.566406 -29.429688 39.546875 -18.921875 Z M 39.546875 -18.921875 "/></g></g></g><g fill="#000000" fill-opacity="1"><g transform="translate(265.505236, 191.68101)"><g><path d="M 140.734375 -59.46875 C 140.734375 -41.09375 135.015625 -26.585938 123.578125 -15.953125 C 112.148438 -5.316406 96.660156 0 77.109375 0 L 10.90625 0 L 10.90625 -1.984375 L 13.484375 -1.984375 C 16.648438 -1.984375 19.289062 -3.039062 21.40625 -5.15625 C 23.519531 -7.269531 24.644531 -9.78125 24.78125 -12.6875 L 24.78125 -106.25 C 24.644531 -109.414062 23.484375 -111.988281 21.296875 -113.96875 C 19.117188 -115.957031 16.445312 -116.953125 13.28125 -116.953125 L 10.90625 -116.953125 L 10.90625 -118.9375 L 77.109375 -118.9375 C 90.054688 -118.9375 101.320312 -116.554688 110.90625 -111.796875 C 120.488281 -107.035156 127.851562 -100.160156 133 -91.171875 C 138.15625 -82.191406 140.734375 -71.625 140.734375 -59.46875 Z M 37.65625 -112.984375 L 37.65625 -5.953125 L 77.109375 -5.953125 C 92.304688 -5.953125 104.332031 -10.738281 113.1875 -20.3125 C 122.039062 -29.894531 126.46875 -42.945312 126.46875 -59.46875 C 126.46875 -75.988281 122.039062 -89.035156 113.1875 -98.609375 C 104.332031 -108.191406 92.304688 -112.984375 77.109375 -112.984375 Z M 37.65625 -112.984375 "/></g></g></g><g fill="#000000" fill-opacity="1"><g transform="translate(413.163279, 191.68101)"><g><path d="M 47.96875 -112.78125 L 37.46875 -112.78125 L 37.46875 -12.6875 C 37.59375 -8.59375 39.441406 -5.488281 43.015625 -3.375 C 44.734375 -2.445312 46.648438 -1.984375 48.765625 -1.984375 L 51.34375 -1.984375 L 51.53125 0 L 10.90625 0 L 10.90625 -1.984375 L 13.671875 -1.984375 C 16.710938 -1.984375 19.320312 -3.003906 21.5 -5.046875 C 23.6875 -7.097656 24.78125 -9.578125 24.78125 -12.484375 L 24.78125 -106.640625 C 24.78125 -109.546875 23.6875 -111.988281 21.5 -113.96875 C 19.320312 -115.957031 16.710938 -116.953125 13.671875 -116.953125 L 10.90625 -116.953125 L 10.90625 -118.9375 L 60.65625 -118.9375 C 73.070312 -118.9375 82.878906 -116.09375 90.078125 -110.40625 C 97.285156 -104.726562 100.890625 -97.265625 100.890625 -88.015625 C 100.890625 -78.765625 97.984375 -71.03125 92.171875 -64.8125 C 86.359375 -58.601562 78.957031 -55.035156 69.96875 -54.109375 C 74.195312 -52.265625 79.285156 -47.113281 85.234375 -38.65625 C 85.097656 -38.65625 87.375 -35.742188 92.0625 -29.921875 C 96.757812 -24.109375 100.53125 -19.582031 103.375 -16.34375 C 106.21875 -13.113281 108.5625 -10.640625 110.40625 -8.921875 C 115.289062 -4.296875 120.90625 -1.984375 127.25 -1.984375 L 127.25 0 L 121.109375 0 C 110.671875 0 102.476562 -2.046875 96.53125 -6.140625 C 92.039062 -9.179688 87.945312 -12.945312 84.25 -17.4375 C 83.445312 -18.5 80.101562 -23.160156 74.21875 -31.421875 C 68.34375 -39.679688 65.207031 -44.070312 64.8125 -44.59375 C 57.675781 -53.445312 51.003906 -57.875 44.796875 -57.875 L 44.796875 -59.859375 C 60.253906 -59.859375 69.570312 -60.648438 72.75 -62.234375 C 77.101562 -64.484375 80.078125 -66.863281 81.671875 -69.375 C 84.972656 -74.664062 86.625 -80.476562 86.625 -86.8125 C 86.625 -94.875 84.242188 -101.085938 79.484375 -105.453125 C 74.722656 -109.816406 68.316406 -112.195312 60.265625 -112.59375 C 56.691406 -112.71875 52.59375 -112.78125 47.96875 -112.78125 Z M 47.96875 -112.78125 "/></g></g></g><g fill="#000000" fill-opacity="1"><g transform="translate(533.469756, 191.68101)"><g><path d="M 131.8125 -116.953125 L 128.84375 -116.953125 C 125.269531 -116.953125 122.5625 -115.5625 120.71875 -112.78125 C 119.925781 -111.59375 119.460938 -110.207031 119.328125 -108.625 L 119.328125 -41.828125 C 119.328125 -28.078125 114.929688 -17.203125 106.140625 -9.203125 C 97.359375 -1.210938 85.300781 2.78125 69.96875 2.78125 C 54.644531 2.78125 42.554688 -1.179688 33.703125 -9.109375 C 24.847656 -17.046875 20.421875 -27.882812 20.421875 -41.625 L 20.421875 -108.421875 C 20.421875 -110.804688 19.492188 -112.820312 17.640625 -114.46875 C 15.785156 -116.125 13.539062 -116.953125 10.90625 -116.953125 L 7.921875 -116.953125 L 7.921875 -118.9375 L 45.59375 -118.9375 L 45.59375 -116.953125 L 42.609375 -116.953125 C 39.972656 -116.953125 37.726562 -116.125 35.875 -114.46875 C 34.03125 -112.820312 33.109375 -110.804688 33.109375 -108.421875 L 33.109375 -44 C 33.109375 -31.1875 36.375 -21.078125 42.90625 -13.671875 C 49.445312 -6.273438 58.695312 -2.578125 70.65625 -2.578125 C 82.625 -2.578125 92.207031 -6.078125 99.40625 -13.078125 C 106.601562 -20.085938 110.203125 -29.671875 110.203125 -41.828125 L 110.203125 -108.421875 C 110.078125 -110.929688 109.117188 -112.976562 107.328125 -114.5625 C 105.546875 -116.15625 103.332031 -116.953125 100.6875 -116.953125 L 97.71875 -116.953125 L 97.71875 -118.9375 L 131.8125 -118.9375 Z M 131.8125 -116.953125 "/></g></g></g><g fill="#000000" fill-opacity="1"><g transform="translate(671.217984, 191.68101)"><g><path d="M 169.671875 -1.984375 L 172.65625 -1.984375 L 172.65625 0 L 131.421875 0 L 131.421875 -1.78125 L 134.390625 -1.78125 C 136.367188 -1.78125 138.117188 -2.539062 139.640625 -4.0625 C 141.160156 -5.582031 141.789062 -7.398438 141.53125 -9.515625 L 131.21875 -91.1875 L 93.75 -17.4375 C 90.050781 -9.382812 87.738281 -2.644531 86.8125 2.78125 L 84.84375 2.78125 L 37.0625 -89.390625 L 28.140625 -9.515625 C 27.878906 -7.535156 28.507812 -5.75 30.03125 -4.15625 C 31.550781 -2.570312 33.367188 -1.78125 35.484375 -1.78125 L 38.25 -1.78125 L 38.25 0 L 1.578125 0 L 1.578125 -1.984375 L 4.5625 -1.984375 C 9.3125 -1.984375 13.007812 -3.703125 15.65625 -7.140625 C 16.976562 -8.859375 17.769531 -10.90625 18.03125 -13.28125 L 33.5 -121.703125 L 35.484375 -121.703125 L 87.8125 -21.015625 L 138.359375 -121.703125 L 140.140625 -121.703125 L 156.203125 -12.890625 C 156.722656 -9.578125 158.238281 -6.929688 160.75 -4.953125 C 163.257812 -2.972656 166.234375 -1.984375 169.671875 -1.984375 Z M 169.671875 -1.984375 "/></g></g></g><g fill="#000000" fill-opacity="1"><g transform="translate(845.236838, 191.68101)"><g/></g></g><g fill="#000000" fill-opacity="1"><g transform="translate(894.786614, 191.68101)"><g><path d="M 124.28125 -74.328125 C 121.507812 -74.328125 119.5625 -73.632812 118.4375 -72.25 C 117.3125 -70.863281 116.75 -69.539062 116.75 -68.28125 C 116.75 -67.03125 117.046875 -64.953125 117.640625 -62.046875 C 118.234375 -59.140625 118.53125 -55.304688 118.53125 -50.546875 C 118.53125 -40.109375 116.085938 -30.59375 111.203125 -22 C 115.960938 -17.90625 119.726562 -14.765625 122.5 -12.578125 C 125.269531 -10.398438 128.898438 -8.15625 133.390625 -5.84375 C 137.890625 -3.53125 142.054688 -2.242188 145.890625 -1.984375 L 145.890625 0 C 145.753906 0 144.660156 0 142.609375 0 C 140.566406 0 139.113281 0 138.25 0 C 137.394531 0 135.8125 -0.0625 133.5 -0.1875 C 131.1875 -0.320312 129.300781 -0.554688 127.84375 -0.890625 C 126.394531 -1.222656 124.476562 -1.648438 122.09375 -2.171875 C 119.71875 -2.703125 117.609375 -3.429688 115.765625 -4.359375 C 111.003906 -6.472656 106.835938 -8.914062 103.265625 -11.6875 C 93.890625 -2.570312 81.664062 1.984375 66.59375 1.984375 C 47.300781 1.984375 32.367188 -2.046875 21.796875 -10.109375 C 11.234375 -18.171875 5.953125 -29.601562 5.953125 -44.40625 C 5.953125 -60.789062 13.945312 -73.015625 29.9375 -81.078125 C 24.914062 -89.128906 22.40625 -97.984375 22.40625 -107.640625 C 22.40625 -117.410156 25.972656 -125.46875 33.109375 -131.8125 C 40.503906 -138.289062 50.210938 -141.53125 62.234375 -141.53125 C 68.972656 -141.53125 75.382812 -140.238281 81.46875 -137.65625 C 87.550781 -135.082031 92.375 -131.679688 95.9375 -127.453125 L 92.375 -105.0625 L 90.390625 -105.0625 C 90.390625 -114.570312 87.8125 -122.035156 82.65625 -127.453125 C 77.5 -132.867188 70.921875 -135.578125 62.921875 -135.578125 C 54.929688 -135.578125 48.457031 -132.929688 43.5 -127.640625 C 38.550781 -122.359375 36.078125 -115.753906 36.078125 -107.828125 C 36.078125 -99.898438 38.519531 -92.429688 43.40625 -85.421875 C 48.300781 -78.421875 57.882812 -68.578125 72.15625 -55.890625 C 86.425781 -43.210938 96.863281 -34.097656 103.46875 -28.546875 C 106.25 -34.617188 107.640625 -40.894531 107.640625 -47.375 C 107.640625 -53.851562 106.21875 -59.960938 103.375 -65.703125 C 100.53125 -71.453125 96.332031 -74.328125 90.78125 -74.328125 L 87.8125 -74.328125 L 87.8125 -76.3125 L 127.25 -76.3125 L 127.25 -74.328125 Z M 96.53125 -17.4375 C 62.695312 -45.320312 41.554688 -64.945312 33.109375 -76.3125 C 24.648438 -68.382812 20.421875 -58.046875 20.421875 -45.296875 C 20.421875 -32.546875 24.484375 -22.46875 32.609375 -15.0625 C 40.734375 -7.664062 52.0625 -3.96875 66.59375 -3.96875 C 78.757812 -3.96875 88.738281 -8.457031 96.53125 -17.4375 Z M 96.53125 -17.4375 "/></g></g></g><g fill="#000000" fill-opacity="1"><g transform="translate(1022.82319, 191.68101)"><g/></g></g><g fill="#000000" fill-opacity="1"><g transform="translate(1072.372966, 191.68101)"><g><path d="M 169.671875 -1.984375 L 172.65625 -1.984375 L 172.65625 0 L 131.421875 0 L 131.421875 -1.78125 L 134.390625 -1.78125 C 136.367188 -1.78125 138.117188 -2.539062 139.640625 -4.0625 C 141.160156 -5.582031 141.789062 -7.398438 141.53125 -9.515625 L 131.21875 -91.1875 L 93.75 -17.4375 C 90.050781 -9.382812 87.738281 -2.644531 86.8125 2.78125 L 84.84375 2.78125 L 37.0625 -89.390625 L 28.140625 -9.515625 C 27.878906 -7.535156 28.507812 -5.75 30.03125 -4.15625 C 31.550781 -2.570312 33.367188 -1.78125 35.484375 -1.78125 L 38.25 -1.78125 L 38.25 0 L 1.578125 0 L 1.578125 -1.984375 L 4.5625 -1.984375 C 9.3125 -1.984375 13.007812 -3.703125 15.65625 -7.140625 C 16.976562 -8.859375 17.769531 -10.90625 18.03125 -13.28125 L 33.5 -121.703125 L 35.484375 -121.703125 L 87.8125 -21.015625 L 138.359375 -121.703125 L 140.140625 -121.703125 L 156.203125 -12.890625 C 156.722656 -9.578125 158.238281 -6.929688 160.75 -4.953125 C 163.257812 -2.972656 166.234375 -1.984375 169.671875 -1.984375 Z M 169.671875 -1.984375 "/></g></g></g><g fill="#000000" fill-opacity="1"><g transform="translate(1245.400727, 191.68101)"><g><path d="M 131.8125 -116.953125 L 128.84375 -116.953125 C 125.269531 -116.953125 122.5625 -115.5625 120.71875 -112.78125 C 119.925781 -111.59375 119.460938 -110.207031 119.328125 -108.625 L 119.328125 -41.828125 C 119.328125 -28.078125 114.929688 -17.203125 106.140625 -9.203125 C 97.359375 -1.210938 85.300781 2.78125 69.96875 2.78125 C 54.644531 2.78125 42.554688 -1.179688 33.703125 -9.109375 C 24.847656 -17.046875 20.421875 -27.882812 20.421875 -41.625 L 20.421875 -108.421875 C 20.421875 -110.804688 19.492188 -112.820312 17.640625 -114.46875 C 15.785156 -116.125 13.539062 -116.953125 10.90625 -116.953125 L 7.921875 -116.953125 L 7.921875 -118.9375 L 45.59375 -118.9375 L 45.59375 -116.953125 L 42.609375 -116.953125 C 39.972656 -116.953125 37.726562 -116.125 35.875 -114.46875 C 34.03125 -112.820312 33.109375 -110.804688 33.109375 -108.421875 L 33.109375 -44 C 33.109375 -31.1875 36.375 -21.078125 42.90625 -13.671875 C 49.445312 -6.273438 58.695312 -2.578125 70.65625 -2.578125 C 82.625 -2.578125 92.207031 -6.078125 99.40625 -13.078125 C 106.601562 -20.085938 110.203125 -29.671875 110.203125 -41.828125 L 110.203125 -108.421875 C 110.078125 -110.929688 109.117188 -112.976562 107.328125 -114.5625 C 105.546875 -116.15625 103.332031 -116.953125 100.6875 -116.953125 L 97.71875 -116.953125 L 97.71875 -118.9375 L 131.8125 -118.9375 Z M 131.8125 -116.953125 "/></g></g></g><g fill="#000000" fill-opacity="1"><g transform="translate(1381.563222, 191.68101)"><g><path d="M 95.34375 -152.234375 C 95.34375 -148.535156 94.414062 -145.097656 92.5625 -141.921875 C 90.71875 -138.753906 88.242188 -136.242188 85.140625 -134.390625 C 82.035156 -132.546875 78.164062 -131.625 73.53125 -131.625 C 68.90625 -131.625 64.578125 -133.671875 60.546875 -137.765625 C 56.523438 -141.859375 54.515625 -146.679688 54.515625 -152.234375 L 56.5 -152.234375 C 57.550781 -149.328125 59.796875 -146.816406 63.234375 -144.703125 C 66.671875 -142.585938 70.601562 -141.53125 75.03125 -141.53125 C 79.457031 -141.53125 83.351562 -142.585938 86.71875 -144.703125 C 90.09375 -146.816406 92.304688 -149.328125 93.359375 -152.234375 Z M 74.921875 2.78125 C 55.234375 2.644531 39.472656 -3.003906 27.640625 -14.171875 C 15.816406 -25.335938 9.90625 -40.46875 9.90625 -59.5625 C 9.90625 -78.65625 15.816406 -93.785156 27.640625 -104.953125 C 39.472656 -116.117188 54.738281 -121.703125 73.4375 -121.703125 C 92.132812 -121.703125 108.023438 -117.738281 121.109375 -109.8125 L 125.46875 -81.671875 L 123.6875 -81.671875 C 120.914062 -93.296875 115.53125 -101.882812 107.53125 -107.4375 C 99.539062 -112.988281 88.242188 -115.765625 73.640625 -115.765625 C 59.035156 -115.765625 47.140625 -110.707031 37.953125 -100.59375 C 28.773438 -90.488281 24.1875 -76.78125 24.1875 -59.46875 C 24.1875 -42.15625 28.8125 -28.441406 38.0625 -18.328125 C 47.3125 -8.222656 60.09375 -3.171875 76.40625 -3.171875 C 92.726562 -3.171875 106.769531 -8.921875 118.53125 -20.421875 L 118.734375 -46.78125 C 118.867188 -49.15625 118.109375 -51.035156 116.453125 -52.421875 C 114.796875 -53.816406 112.515625 -54.515625 109.609375 -54.515625 L 106.84375 -54.515625 L 106.84375 -56.5 L 143.109375 -56.5 L 143.109375 -54.515625 L 140.34375 -54.515625 C 134.394531 -54.515625 131.421875 -51.867188 131.421875 -46.578125 L 131.421875 -22.796875 C 125.867188 -15.921875 118.234375 -9.9375 108.515625 -4.84375 C 98.804688 0.238281 87.609375 2.78125 74.921875 2.78125 Z M 74.921875 2.78125 "/></g></g></g><g fill="#000000" fill-opacity="1"><g transform="translate(1525.65362, 191.68101)"><g><path d="M 13.671875 -1.984375 C 16.847656 -1.984375 19.523438 -3.003906 21.703125 -5.046875 C 23.878906 -7.097656 25.035156 -9.578125 25.171875 -12.484375 L 25.171875 -106.25 C 25.035156 -109.15625 23.8125 -111.664062 21.5 -113.78125 C 19.1875 -115.894531 16.445312 -116.953125 13.28125 -116.953125 L 10.90625 -116.953125 L 10.90625 -118.9375 L 51.9375 -118.9375 L 51.9375 -116.953125 L 49.5625 -116.953125 C 46.382812 -116.953125 43.640625 -115.894531 41.328125 -113.78125 C 39.015625 -111.664062 37.859375 -109.15625 37.859375 -106.25 L 37.859375 -6.140625 L 68.78125 -6.140625 C 74.863281 -6.140625 80.019531 -7.195312 84.25 -9.3125 C 88.476562 -11.425781 91.679688 -13.9375 93.859375 -16.84375 C 96.035156 -19.75 98.179688 -23.582031 100.296875 -28.34375 L 102.28125 -28.34375 L 91.375 0 L 10.90625 0 L 10.90625 -1.984375 Z M 13.671875 -1.984375 "/></g></g></g><g fill="#000000" fill-opacity="1"><g transform="translate(1631.888335, 191.68101)"><g><path d="M 130.828125 -1.984375 L 132.40625 -1.984375 L 132.40625 0 L 91.78125 0 L 91.78125 -1.984375 L 93.359375 -1.984375 C 95.867188 -1.984375 97.785156 -2.84375 99.109375 -4.5625 C 100.429688 -6.28125 101.09375 -7.894531 101.09375 -9.40625 C 101.09375 -10.925781 100.828125 -12.414062 100.296875 -13.875 L 89.390625 -40.234375 L 39.25 -40.234375 L 28.34375 -14.46875 C 27.6875 -12.75 27.359375 -11.128906 27.359375 -9.609375 C 27.359375 -8.085938 28.015625 -6.4375 29.328125 -4.65625 C 30.648438 -2.875 32.632812 -1.984375 35.28125 -1.984375 L 36.875 -1.984375 L 36.875 0 L -0.984375 0 L -0.984375 -1.984375 L 0.59375 -1.984375 C 3.363281 -1.984375 6.171875 -2.941406 9.015625 -4.859375 C 11.859375 -6.773438 14.207031 -9.648438 16.0625 -13.484375 C 45 -75.328125 60.0625 -107.703125 61.25 -110.609375 C 63.5 -116.160156 64.6875 -119.859375 64.8125 -121.703125 L 66.59375 -121.703125 L 115.5625 -13.484375 C 119.394531 -5.816406 124.484375 -1.984375 130.828125 -1.984375 Z M 41.828125 -46.1875 L 87.015625 -46.1875 L 64.8125 -100.5 Z M 41.828125 -46.1875 "/></g></g></g></g></g><g fill="#000000" fill-opacity="1"><g transform="translate(45.233459, 750.300749)"><g><path d="M 39.34375 -154.109375 C 37.695312 -152.460938 35.679688 -151.640625 33.296875 -151.640625 C 30.921875 -151.640625 28.90625 -152.460938 27.25 -154.109375 C 25.601562 -155.765625 24.78125 -157.78125 24.78125 -160.15625 C 24.78125 -162.539062 25.601562 -164.554688 27.25 -166.203125 C 28.90625 -167.859375 30.921875 -168.6875 33.296875 -168.6875 C 35.679688 -168.6875 37.695312 -167.859375 39.34375 -166.203125 C 41 -164.554688 41.828125 -162.539062 41.828125 -160.15625 C 41.828125 -157.78125 41 -155.765625 39.34375 -154.109375 Z M 14.46875 -1.984375 C 17.90625 -1.984375 20.84375 -3.203125 23.28125 -5.640625 C 25.726562 -8.085938 27.019531 -11.03125 27.15625 -14.46875 L 27.15625 -124.484375 C 27.019531 -127.921875 25.726562 -130.828125 23.28125 -133.203125 C 20.84375 -135.578125 17.90625 -136.765625 14.46875 -136.765625 L 11.890625 -136.765625 L 11.890625 -138.75 L 55.296875 -138.75 L 55.296875 -136.765625 L 52.71875 -136.765625 C 49.289062 -136.765625 46.351562 -135.578125 43.90625 -133.203125 C 41.457031 -130.828125 40.171875 -127.921875 40.046875 -124.484375 L 40.046875 -14.46875 C 40.046875 -11.03125 41.300781 -8.085938 43.8125 -5.640625 C 46.320312 -3.203125 49.289062 -1.984375 52.71875 -1.984375 L 55.296875 -1.984375 L 55.296875 0 L 11.890625 0 L 11.890625 -1.984375 Z M 14.46875 -1.984375 "/></g></g></g><g fill="#000000" fill-opacity="1"><g transform="translate(112.22902, 750.300749)"><g><path d="M 144.109375 -116.953125 C 141.203125 -116.953125 138.691406 -115.992188 136.578125 -114.078125 C 134.460938 -112.160156 133.335938 -109.8125 133.203125 -107.03125 L 133.203125 -22.59375 C 133.203125 -14.925781 133.664062 -7.660156 134.59375 -0.796875 L 134.984375 2.78125 L 133.203125 2.78125 L 30.125 -94.953125 L 30.125 -12.296875 C 30.125 -9.378906 31.179688 -6.929688 33.296875 -4.953125 C 35.410156 -2.972656 37.988281 -1.984375 41.03125 -1.984375 L 44.40625 -1.984375 L 44.40625 0 L 6.9375 0 L 6.9375 -1.984375 L 10.3125 -1.984375 C 13.34375 -1.984375 15.914062 -2.972656 18.03125 -4.953125 C 20.144531 -6.929688 21.203125 -9.378906 21.203125 -12.296875 L 21.203125 -97.125 C 21.203125 -105.1875 20.742188 -112.390625 19.828125 -118.734375 L 19.421875 -121.90625 L 21.609375 -121.703125 L 124.484375 -24.78125 L 124.484375 -107.03125 C 124.210938 -109.8125 123.019531 -112.160156 120.90625 -114.078125 C 118.789062 -115.992188 116.28125 -116.953125 113.375 -116.953125 L 110.015625 -116.953125 L 110.015625 -118.9375 L 147.46875 -118.9375 L 147.46875 -116.953125 Z M 144.109375 -116.953125 "/></g></g></g><g fill="#000000" fill-opacity="1"><g transform="translate(266.63593, 750.300749)"><g><path d="M 9.515625 -6.546875 C 8.984375 -8.128906 8.71875 -11.363281 8.71875 -16.25 C 8.71875 -21.144531 9.578125 -26.101562 11.296875 -31.125 L 13.671875 -31.125 C 13.546875 -29.9375 13.484375 -28.742188 13.484375 -27.546875 C 13.484375 -20.410156 15.859375 -14.5625 20.609375 -10 C 25.367188 -5.445312 31.910156 -3.171875 40.234375 -3.171875 C 48.960938 -3.171875 55.738281 -5.1875 60.5625 -9.21875 C 65.382812 -13.25 67.796875 -18.46875 67.796875 -24.875 C 67.796875 -31.28125 65.414062 -36.597656 60.65625 -40.828125 L 21.015625 -71.359375 C 14.671875 -76.773438 11.5 -84.039062 11.5 -93.15625 C 11.5 -98.3125 12.914062 -103.066406 15.75 -107.421875 C 18.59375 -111.785156 22.554688 -115.253906 27.640625 -117.828125 C 32.734375 -120.410156 38.710938 -121.703125 45.578125 -121.703125 C 52.453125 -121.703125 58.535156 -121.109375 63.828125 -119.921875 L 70.5625 -119.921875 L 70.765625 -98.3125 L 68.578125 -98.3125 C 68.578125 -103.863281 66.660156 -108.160156 62.828125 -111.203125 C 59.003906 -114.242188 53.519531 -115.765625 46.375 -115.765625 C 39.238281 -115.765625 33.359375 -113.945312 28.734375 -110.3125 C 24.109375 -106.675781 21.796875 -101.984375 21.796875 -96.234375 C 21.796875 -90.484375 24.375 -85.492188 29.53125 -81.265625 L 69.765625 -50.34375 C 75.710938 -45.320312 78.6875 -38.382812 78.6875 -29.53125 C 78.6875 -20.675781 75.484375 -13.207031 69.078125 -7.125 C 62.671875 -1.050781 54.773438 2.25 45.390625 2.78125 L 37.265625 12.09375 C 39.515625 11.300781 41.695312 10.90625 43.8125 10.90625 C 49.351562 10.90625 53.113281 12.257812 55.09375 14.96875 C 57.082031 17.675781 58.078125 20.75 58.078125 24.1875 C 58.078125 30 55.238281 34.289062 49.5625 37.0625 C 46.125 38.65625 42.785156 39.453125 39.546875 39.453125 C 36.304688 39.453125 33.164062 38.988281 30.125 38.0625 L 30.328125 36.078125 C 35.210938 36.078125 39.40625 35.082031 42.90625 33.09375 C 46.414062 31.113281 48.171875 28.078125 48.171875 23.984375 C 48.171875 18.171875 44.863281 15.265625 38.25 15.265625 C 36.007812 15.265625 33.765625 15.789062 31.515625 16.84375 L 30.53125 14.859375 L 40.046875 2.78125 C 25.765625 1.976562 15.585938 -1.128906 9.515625 -6.546875 Z M 9.515625 -6.546875 "/></g></g></g><g fill="#000000" fill-opacity="1"><g transform="translate(348.299144, 750.300749)"><g><path d="M 130.828125 -1.984375 L 132.40625 -1.984375 L 132.40625 0 L 91.78125 0 L 91.78125 -1.984375 L 93.359375 -1.984375 C 95.867188 -1.984375 97.785156 -2.84375 99.109375 -4.5625 C 100.429688 -6.28125 101.09375 -7.894531 101.09375 -9.40625 C 101.09375 -10.925781 100.828125 -12.414062 100.296875 -13.875 L 89.390625 -40.234375 L 39.25 -40.234375 L 28.34375 -14.46875 C 27.6875 -12.75 27.359375 -11.128906 27.359375 -9.609375 C 27.359375 -8.085938 28.015625 -6.4375 29.328125 -4.65625 C 30.648438 -2.875 32.632812 -1.984375 35.28125 -1.984375 L 36.875 -1.984375 L 36.875 0 L -0.984375 0 L -0.984375 -1.984375 L 0.59375 -1.984375 C 3.363281 -1.984375 6.171875 -2.941406 9.015625 -4.859375 C 11.859375 -6.773438 14.207031 -9.648438 16.0625 -13.484375 C 45 -75.328125 60.0625 -107.703125 61.25 -110.609375 C 63.5 -116.160156 64.6875 -119.859375 64.8125 -121.703125 L 66.59375 -121.703125 L 115.5625 -13.484375 C 119.394531 -5.816406 124.484375 -1.984375 130.828125 -1.984375 Z M 41.828125 -46.1875 L 87.015625 -46.1875 L 64.8125 -100.5 Z M 41.828125 -46.1875 "/></g></g></g><g fill="#000000" fill-opacity="1"><g transform="translate(479.713481, 750.300749)"><g><path d="M 130.828125 -1.984375 L 132.40625 -1.984375 L 132.40625 0 L 91.78125 0 L 91.78125 -1.984375 L 93.359375 -1.984375 C 95.867188 -1.984375 97.785156 -2.84375 99.109375 -4.5625 C 100.429688 -6.28125 101.09375 -7.894531 101.09375 -9.40625 C 101.09375 -10.925781 100.828125 -12.414062 100.296875 -13.875 L 89.390625 -40.234375 L 39.25 -40.234375 L 28.34375 -14.46875 C 27.6875 -12.75 27.359375 -11.128906 27.359375 -9.609375 C 27.359375 -8.085938 28.015625 -6.4375 29.328125 -4.65625 C 30.648438 -2.875 32.632812 -1.984375 35.28125 -1.984375 L 36.875 -1.984375 L 36.875 0 L -0.984375 0 L -0.984375 -1.984375 L 0.59375 -1.984375 C 3.363281 -1.984375 6.171875 -2.941406 9.015625 -4.859375 C 11.859375 -6.773438 14.207031 -9.648438 16.0625 -13.484375 C 45 -75.328125 60.0625 -107.703125 61.25 -110.609375 C 63.5 -116.160156 64.6875 -119.859375 64.8125 -121.703125 L 66.59375 -121.703125 L 115.5625 -13.484375 C 119.394531 -5.816406 124.484375 -1.984375 130.828125 -1.984375 Z M 41.828125 -46.1875 L 87.015625 -46.1875 L 64.8125 -100.5 Z M 41.828125 -46.1875 "/></g></g></g><g fill="#000000" fill-opacity="1"><g transform="translate(597.252909, 750.300749)"><g><path d="M 63.828125 -113.1875 L 63.828125 -12.484375 C 63.960938 -8.390625 65.941406 -5.351562 69.765625 -3.375 C 71.484375 -2.445312 73.398438 -1.984375 75.515625 -1.984375 L 77.703125 -1.984375 L 77.703125 0 L 36.875 0 L 36.875 -1.984375 L 39.25 -1.984375 C 42.414062 -1.984375 45.125 -3.039062 47.375 -5.15625 C 49.625 -7.269531 50.8125 -9.78125 50.9375 -12.6875 L 50.9375 -113.1875 L 15.0625 -113.1875 C 12.019531 -113.1875 9.609375 -112.191406 7.828125 -110.203125 C 6.046875 -108.222656 5.15625 -105.847656 5.15625 -103.078125 L 5.15625 -99.90625 L 2.96875 -99.90625 L 2.96875 -122.296875 C 5.613281 -121.242188 9.347656 -120.453125 14.171875 -119.921875 C 18.992188 -119.390625 22.59375 -119.125 24.96875 -119.125 L 89.59375 -119.125 C 99.101562 -119.125 106.503906 -120.179688 111.796875 -122.296875 L 111.796875 -99.90625 L 109.609375 -99.90625 L 109.609375 -103.078125 C 109.609375 -105.847656 108.679688 -108.222656 106.828125 -110.203125 C 104.984375 -112.191406 102.609375 -113.1875 99.703125 -113.1875 Z M 63.828125 -113.1875 "/></g></g></g><g clip-path="url(#1ab032f4fa)"><path stroke-linecap="butt" transform="matrix(1.854882, 0, 0, 1.854882, 4.000054, 501.585606)" fill="none" stroke-linejoin="miter" d="M -0.0000289938 2.000811 L 1445.172645 2.000811 " stroke="#000000" stroke-width="4" stroke-opacity="1" stroke-miterlimit="4"/></g></g></g></svg>